<svg xmlns="http://www.w3.org/2000/svg" viewBox="0 0 960 640" role="img" aria-labelledby="title desc">
  <title id="title">Research workspace illustration</title>
  <desc id="desc">Abstract visual system showing papers, corpus nodes, charts, and interface panels.</desc>
  <rect width="960" height="640" fill="#ebe7dc"/>
  <rect x="70" y="80" width="860" height="500" rx="18" fill="#ffffff" stroke="#d8d0c2" stroke-width="3"/>
  <rect x="112" y="122" width="248" height="228" rx="10" fill="#f8f7f2" stroke="#d8d0c2" stroke-width="2"/>
  <rect x="394" y="122" width="452" height="90" rx="10" fill="#28666e"/>
  <rect x="394" y="242" width="180" height="194" rx="10" fill="#f8f7f2" stroke="#d8d0c2" stroke-width="2"/>
  <rect x="606" y="242" width="240" height="194" rx="10" fill="#f8f7f2" stroke="#d8d0c2" stroke-width="2"/>
  <rect x="112" y="384" width="248" height="104" rx="10" fill="#183f45"/>
  <circle cx="166" cy="182" r="28" fill="#b4452d"/>
  <circle cx="248" cy="236" r="28" fill="#28666e"/>
  <circle cx="304" cy="168" r="28" fill="#d8a64f"/>
  <path d="M166 182L248 236L304 168L166 182" fill="none" stroke="#69645c" stroke-width="4"/>
  <rect x="430" y="154" width="262" height="14" rx="7" fill="#ffffff" opacity=".92"/>
  <rect x="430" y="180" width="150" height="12" rx="6" fill="#ffffff" opacity=".64"/>
  <rect x="432" y="378" width="32" height="26" rx="4" fill="#b4452d"/>
  <rect x="478" y="336" width="32" height="68" rx="4" fill="#28666e"/>
  <rect x="524" y="298" width="32" height="106" rx="4" fill="#d8a64f"/>
  <path d="M642 390C668 310 704 360 724 318C750 264 788 314 820 278" fill="none" stroke="#28666e" stroke-width="8" stroke-linecap="round"/>
  <rect x="642" y="438" width="160" height="12" rx="6" fill="#d8d0c2"/>
  <rect x="642" y="466" width="120" height="12" rx="6" fill="#d8d0c2"/>
  <rect x="140" y="414" width="170" height="12" rx="6" fill="#ffffff" opacity=".92"/>
  <rect x="140" y="444" width="116" height="12" rx="6" fill="#ffffff" opacity=".7"/>
  <path d="M82 548C220 510 318 562 454 526C580 494 694 506 920 470" fill="none" stroke="#b4452d" stroke-width="6" opacity=".55"/>
</svg>
